<?xml version="1.0" encoding="utf-8"?>
<svg version="1.1" xmlns="http://www.w3.org/2000/svg" viewBox="0 0 8503.937 2834.646" width="100%" height="100%">
  <g>
    <path d="M 0 2834.646 h 8503.937 v -2834.645 h -8503.937 Z" fill="none" stroke="none" />
    <path d="M 4303.152 522.422 L 4144.975 522.422 L 4144.975 465.3230000000003 L 4530.004 465.3230000000003 L 4530.004 522.422 L 4371.054 522.422 L 4371.054 985.3890000000001 L 4303.152 985.3890000000001 Z" fill="#00bd3a" stroke="none" />
    <path d="M 4655.012 465.3230000000003 L 4655.012 682.9110000000001 L 4906.555 682.9110000000001 L 4906.555 465.3230000000003 L 4974.457 465.3230000000003 L 4974.457 985.3890000000001 L 4906.555 985.3890000000001 L 4906.555 741.556 L 4655.012 741.556 L 4655.012 985.3890000000001 L 4587.883 985.3890000000001 L 4587.883 465.3230000000003 Z" fill="#00bd3a" stroke="none" />
    <path d="M 5360.264 741.556 L 5158.104 741.556 L 5158.104 929.0550000000003 L 5383.41 929.0550000000003 L 5383.41 985.3880000000001 L 5090.974 985.3880000000001 L 5090.974 465.3220000000001 L 5371.84 465.3220000000001 L 5371.84 521.6550000000002 L 5158.104 521.6550000000002 L 5158.104 686.0030000000002 L 5360.264 686.0030000000002 Z" fill="#00bd3a" stroke="none" />
    <path d="M 4204.388 1063.9890000000003 L 4484.481 1063.9890000000003 L 4484.481 1120.3220000000001 L 4271.517 1120.3220000000001 L 4271.517 1293.1530000000002 L 4468.28 1293.1530000000002 L 4468.28 1348.7200000000003 L 4271.517 1348.7200000000003 L 4271.517 1584.0550000000003 L 4204.388 1584.0550000000003 Z" fill="#00bd3a" stroke="none" />
    <path d="M 4580.166 1584.0550000000003 h 67.129 v -520.066 h -67.129 Z" fill="#00bd3a" stroke="none" />
    <path d="M 4831.709 1307.8210000000001 L 4900.384 1307.8210000000001 C 4972.145 1307.8210000000001, 5017.668 1268.4560000000001, 5017.668 1209.0570000000002 C 5017.668 1141.9140000000002, 4969.053 1112.6050000000002, 4898.071 1111.8250000000003 C 4865.663 1111.8250000000003, 4842.512 1114.9170000000001, 4831.709 1118.0090000000002 Z M 4764.58 1070.9270000000001 C 4798.534 1063.9890000000003, 4847.143 1060.1430000000003, 4893.44 1060.1430000000003 C 4965.201 1060.1430000000003, 5011.491 1073.2520000000002, 5043.899 1102.5750000000003 C 5070.136 1125.727, 5084.797 1161.2200000000003, 5084.797 1201.3390000000002 C 5084.797 1270.015, 5041.586 1315.5380000000002, 4986.8 1334.0520000000001 L 4986.8 1336.3640000000003 C 5026.925 1350.2530000000002, 5050.843 1387.2920000000001, 5063.192 1441.3000000000002 C 5080.166 1513.8340000000003, 5092.508 1563.9950000000001, 5103.311 1584.0550000000003 L 5033.869 1584.0550000000003 C 5025.379 1568.6200000000001, 5013.81 1524.63, 4999.148 1459.8260000000002 C 4983.714 1388.0590000000002, 4955.938 1361.0620000000001, 4894.98 1358.7490000000003 L 4831.709 1358.7490000000003 L 4831.709 1584.0550000000003 L 4764.58 1584.0550000000003 Z" fill="#00bd3a" stroke="none" />
    <path d="M 5170.453 1502.2580000000003 C 5200.542 1520.784, 5244.526 1536.2190000000003, 5290.823 1536.2190000000003 C 5359.492 1536.2190000000003, 5399.617 1499.9450000000002, 5399.617 1447.4840000000002 C 5399.617 1398.8680000000002, 5371.841 1371.092, 5301.626 1344.082 C 5216.75 1313.9920000000002, 5164.282 1270.015, 5164.282 1196.7150000000001 C 5164.282 1115.6970000000001, 5231.411 1055.505, 5332.488 1055.505 C 5385.729 1055.505, 5424.308 1067.8480000000002, 5447.453 1080.9700000000003 L 5428.94 1135.7570000000003 C 5411.966 1126.4930000000002, 5377.239 1111.0590000000002, 5330.176 1111.0590000000002 C 5259.188 1111.0590000000002, 5232.184 1153.5030000000002, 5232.184 1188.9970000000003 C 5232.184 1237.6000000000001, 5263.819 1261.5180000000003, 5335.574 1289.295 C 5423.536 1323.256, 5468.292 1365.6870000000001, 5468.292 1442.0800000000002 C 5468.292 1522.3180000000002, 5408.874 1592.5390000000002, 5286.191 1592.5390000000002 C 5236.036 1592.5390000000002, 5181.256 1577.1040000000003, 5153.479 1558.5910000000001 Z" fill="#00bd3a" stroke="none" />
    <path d="M 5658.877 1121.0890000000002 L 5500.7 1121.0890000000002 L 5500.7 1063.9900000000002 L 5885.729 1063.9900000000002 L 5885.729 1121.0890000000002 L 5726.779 1121.0890000000002 L 5726.779 1584.0560000000003 L 5658.877 1584.0560000000003 Z" fill="#00bd3a" stroke="none" />
    <path d="M 4195.131 2100.9251000000004 C 4225.22 2119.4511, 4269.205 2134.8861, 4315.501 2134.8861 C 4384.17 2134.8861, 4424.296 2098.6121000000003, 4424.296 2046.1511 C 4424.296 1997.5351, 4396.519 1969.7591000000002, 4326.304 1942.7491000000002 C 4241.428 1912.6591000000003, 4188.96 1868.6821000000002, 4188.96 1795.381 C 4188.96 1714.3640000000003, 4256.089 1654.1720000000003, 4357.166 1654.1720000000003 C 4410.407 1654.1720000000003, 4448.986 1666.515, 4472.131 1679.6370000000002 L 4453.618 1734.4230000000002 C 4436.644 1725.16, 4401.917 1709.726, 4354.854 1709.726 C 4283.866 1709.726, 4256.856 1752.17, 4256.856 1787.6640000000002 C 4256.856 1836.2671, 4288.498 1860.1851000000001, 4360.252 1887.9621000000002 C 4448.214 1921.9231000000002, 4492.97 1964.3541, 4492.97 2040.7471 C 4492.97 2120.9851000000003, 4433.552 2191.2061000000003, 4310.87 2191.2061000000003 C 4260.714 2191.2061000000003, 4205.934 2175.7711, 4178.157 2157.2581 Z" fill="#00bd3a" stroke="none" />
    <path d="M 4700.542 2182.7221 L 4700.542 1962.0421000000001 L 4536.188 1662.6560000000002 L 4612.574 1662.6560000000002 L 4685.881 1806.178 C 4705.94 1845.5301000000002, 4721.375 1877.1651000000002, 4737.576 1913.4261000000001 L 4739.122 1913.4261000000001 C 4753.776 1879.4781000000003, 4771.523 1845.5301000000002, 4791.589 1806.178 L 4866.436 1662.6560000000002 L 4942.822 1662.6560000000002 L 4768.438 1961.2621000000001 L 4768.438 2182.7221 Z" fill="#00bd3a" stroke="none" />
    <path d="M 4982.947 2100.9251000000004 C 5013.036 2119.4511, 5057.02 2134.8861, 5103.317 2134.8861 C 5171.986 2134.8861, 5212.111 2098.6121000000003, 5212.111 2046.1511 C 5212.111 1997.5351, 5184.334 1969.7591000000002, 5114.119 1942.7491000000002 C 5029.243 1912.6591000000003, 4976.776 1868.6821000000002, 4976.776 1795.381 C 4976.776 1714.3640000000003, 5043.905 1654.1720000000003, 5144.982 1654.1720000000003 C 5198.222 1654.1720000000003, 5236.802 1666.515, 5259.947 1679.6370000000002 L 5241.434 1734.4230000000002 C 5224.46 1725.16, 5189.733 1709.726, 5142.669 1709.726 C 5071.681 1709.726, 5044.671 1752.17, 5044.671 1787.6640000000002 C 5044.671 1836.2671, 5076.313 1860.1851000000001, 5148.068 1887.9621000000002 C 5236.029 1921.9231000000002, 5280.786 1964.3541, 5280.786 2040.7471 C 5280.786 2120.9851000000003, 5221.368 2191.2061000000003, 5098.685 2191.2061000000003 C 5048.53 2191.2061000000003, 4993.75 2175.7711, 4965.973 2157.2581 Z" fill="#00bd3a" stroke="none" />
    <path d="M 5471.377 1719.756 L 5313.201 1719.756 L 5313.201 1662.6570000000002 L 5698.229 1662.6570000000002 L 5698.229 1719.756 L 5539.279 1719.756 L 5539.279 2182.7217 L 5471.377 2182.7217 Z" fill="#00bd3a" stroke="none" />
    <path d="M 6025.398 1938.8901 L 5823.237 1938.8901 L 5823.237 2126.3891000000003 L 6048.543 2126.3891000000003 L 6048.543 2182.7221 L 5756.108 2182.7221 L 5756.108 1662.6560000000002 L 6036.974 1662.6560000000002 L 6036.974 1718.9890000000003 L 5823.237 1718.9890000000003 L 5823.237 1883.3371000000002 L 6025.398 1883.3371000000002 Z" fill="#00bd3a" stroke="none" />
    <path d="M 6574.007 1954.3245000000002 C 6570.149 1881.7905, 6565.524 1794.6030000000003, 6566.29 1729.785 L 6563.977 1729.785 C 6546.231 1790.7430000000002, 6524.625 1856.3395, 6498.394 1927.3145000000002 L 6406.574 2179.6305 L 6355.646 2179.6305 L 6271.543 1931.9525000000003 C 6246.852 1858.6525000000001, 6226.019 1791.5100000000002, 6211.358 1729.785 L 6209.812 1729.785 C 6208.272 1794.6030000000003, 6204.413 1881.7905, 6199.782 1959.7295000000001 L 6185.894 2182.7225000000003 L 6121.85 2182.7225000000003 L 6158.117 1662.6560000000002 L 6243.766 1662.6560000000002 L 6332.501 1914.2055 C 6354.1 1978.2425000000003, 6371.846 2035.3425000000002, 6384.968 2089.3495000000003 L 6387.281 2089.3495000000003 C 6400.396 2036.8755, 6418.916 1979.7885, 6442.068 1914.2055 L 6534.654 1662.6560000000002 L 6620.304 1662.6560000000002 L 6652.712 2182.7225000000003 L 6587.122 2182.7225000000003 Z" fill="#00bd3a" stroke="none" />
    <path d="M 4018.364 2433.905 h 43.501 v -2036.179 h -43.501 Z" fill="#00bd3a" stroke="none" />
    <path d="M 3887.279 400.866 L 2297.187 400.866 L 2297.187 927.9250000000002 L 2973.579 927.9250000000002 L 2973.579 1118.9180000000001 L 2297.187 1118.9180000000001 L 2297.187 1927.9062000000004 L 2066.424 1927.9062000000004 L 2066.424 400.866 L 1851.225 400.866 L 1851.225 2436.9202 L 3541.124 2436.9202 C 3494.436 2370.8492, 3410.185 2318.9872, 3277.915 2268.1192 C 3009.994 2173.1382000000003, 2844.373 2034.2972000000002, 2844.373 1802.9160000000002 C 2844.373 1547.1740000000002, 3056.274 1357.1940000000002, 3375.336 1357.1940000000002 C 3543.396 1357.1940000000002, 3665.177 1396.1550000000002, 3738.237 1437.5750000000003 L 3679.798 1610.496 C 3626.217 1581.275, 3516.596 1532.5560000000003, 3368.036 1532.5560000000003 C 3143.955 1532.5560000000003, 3058.694 1666.516, 3058.694 1778.5550000000003 C 3058.694 1931.9962, 3158.575 2007.4962, 3385.076 2095.1982000000003 C 3603.359 2179.4422000000004, 3736.954 2280.5042000000003, 3784.282 2436.9202 L 3887.279 2436.9202 Z" fill="#00bd3a" stroke="none" />
    <path d="M 4215.045 2420.9335 C 4216.586 2421.2895000000003, 4219.074 2421.2895000000003, 4221.326 2421.2895000000003 C 4237.682 2421.4095, 4248.352 2412.3995, 4248.352 2393.3155 C 4248.468 2376.7245000000003, 4238.75 2367.9545000000003, 4223.223 2367.9545000000003 C 4219.194 2367.9545000000003, 4216.586 2368.3105, 4215.045 2368.6625000000004 Z M 4196.909 2355.7435 C 4203.546 2354.6795, 4212.201 2354.0875, 4221.326 2354.0875 C 4236.498 2354.0875, 4246.336 2356.8125, 4254.042 2362.6215 C 4262.335 2368.7825000000003, 4267.552 2378.6205, 4267.552 2392.7235 C 4267.552 2408.0145, 4261.979 2418.5655, 4254.277 2425.0825000000004 C 4245.859 2432.0755000000004, 4233.061 2435.3925000000004, 4217.414 2435.3925000000004 C 4208.052 2435.3925000000004, 4201.414 2434.8005000000003, 4196.909 2434.2085 Z" fill="#00bd3a" stroke="none" />
    <path d="M 4326.928 2400.7854 L 4297.534 2400.7854 L 4297.534 2419.7494 L 4330.365 2419.7494 L 4330.365 2434.5644 L 4279.398 2434.5644 L 4279.398 2354.6804 L 4328.704 2354.6804 L 4328.704 2369.4954000000002 L 4297.534 2369.4954000000002 L 4297.534 2386.0864 L 4326.928 2386.0864 Z" fill="#00bd3a" stroke="none" />
    <path d="M 4401.364 2432.3118000000004 C 4398.043 2433.9718000000003, 4390.577 2435.8688, 4380.86 2435.8688 C 4353.242 2435.8688, 4339.019 2418.5648, 4339.019 2395.8088000000002 C 4339.019 2368.5468, 4358.454 2353.3758000000003, 4382.636 2353.3758000000003 C 4391.998 2353.3758000000003, 4399.111 2355.2718000000004, 4402.312 2356.9328 L 4398.635 2371.2708000000002 C 4394.962 2369.7308000000003, 4389.865 2368.3108, 4383.464 2368.3108 C 4369.125 2368.3108, 4357.983 2376.9598, 4357.983 2394.7398000000003 C 4357.983 2410.7388, 4367.465 2420.8178000000003, 4383.584 2420.8178000000003 C 4389.037 2420.8178000000003, 4395.078 2419.6288000000004, 4398.635 2418.2088000000003 Z" fill="#00bd3a" stroke="none" />
    <path d="M 4425.065 2394.8603000000003 C 4425.065 2410.5033000000003, 4432.41 2421.5253000000002, 4444.501 2421.5253000000002 C 4456.707 2421.5253000000002, 4463.701 2409.9113, 4463.701 2394.3843 C 4463.701 2380.0413000000003, 4456.827 2367.7183, 4444.38 2367.7183 C 4432.174 2367.7183, 4425.065 2379.3333000000002, 4425.065 2394.8603000000003 M 4482.785 2393.7923 C 4482.785 2419.9853000000003, 4466.901 2435.8683, 4443.553 2435.8683 C 4419.848 2435.8683, 4405.981 2417.9683, 4405.981 2395.2123 C 4405.981 2371.2713000000003, 4421.272 2353.3753, 4444.857 2353.3753 C 4469.39 2353.3753, 4482.785 2371.7473, 4482.785 2393.7923" fill="#00bd3a" stroke="none" />
    <path d="M 4512.53 2390.1193000000003 L 4519.639 2390.1193000000003 C 4528.649 2390.1193000000003, 4533.982 2385.6143, 4533.982 2378.6203 C 4533.982 2371.2713000000003, 4529.001 2367.5983, 4520.707 2367.4783 C 4516.322 2367.4783, 4513.83 2367.8343000000004, 4512.53 2368.0703000000003 Z M 4494.63 2355.7443000000003 C 4500.439 2354.7953, 4509.093 2354.0883000000003, 4518.691 2354.0883000000003 C 4530.546 2354.0883000000003, 4538.839 2355.8643, 4544.528 2360.3693000000003 C 4549.269 2364.1623, 4551.878 2369.7313000000004, 4551.878 2377.0803 C 4551.878 2387.2743, 4544.648 2394.2683, 4537.775 2396.7563 L 4537.775 2397.1083000000003 C 4543.344 2399.3613, 4546.425 2404.6943, 4548.441 2412.0433000000003 C 4550.929 2421.0533, 4553.418 2431.4843, 4554.958 2434.5643 L 4536.47 2434.5643 C 4535.166 2432.1963, 4533.27 2425.7943, 4530.897 2415.9563000000003 C 4528.765 2405.9983, 4525.328 2403.2743, 4517.979 2403.1533 L 4512.53 2403.1533 L 4512.53 2434.5643 L 4494.63 2434.5643 Z" fill="#00bd3a" stroke="none" />
    <path d="M 4604.857 2400.5495 L 4599.88 2383.5975000000003 C 4598.456 2378.8565000000003, 4597.035 2372.9315, 4595.851 2368.1905 L 4595.615 2368.1905 C 4594.427 2372.9315, 4593.243 2378.9765, 4591.938 2383.5975000000003 L 4587.197 2400.5495 Z M 4584.588 2414.0605 L 4578.899 2434.5645000000004 L 4560.176 2434.5645000000004 L 4584.588 2354.6795 L 4608.294 2354.6795 L 4633.067 2434.5645000000004 L 4613.627 2434.5645000000004 L 4607.465 2414.0605 Z" fill="#00bd3a" stroke="none" />
    <path d="M 4649.302 2369.851 L 4627.85 2369.851 L 4627.85 2354.6800000000003 L 4689.246 2354.6800000000003 L 4689.246 2369.851 L 4667.438 2369.851 L 4667.438 2434.5640000000003 L 4649.302 2434.5640000000003 Z" fill="#00bd3a" stroke="none" />
    <path d="M 4698.844 2434.5640000000003 h 18.136 v -79.884 h -18.136 Z" fill="#00bd3a" stroke="none" />
    <path d="M 4751.467 2434.5644 L 4725.865 2354.6804 L 4745.657 2354.6804 L 4755.375 2388.4584000000004 C 4758.104 2397.9404000000004, 4760.592 2407.0664, 4762.489 2417.0254 L 4762.845 2417.0254 C 4764.858 2407.4224000000004, 4767.346 2397.9404000000004, 4770.075 2388.8154000000004 L 4780.269 2354.6804 L 4799.469 2354.6804 L 4772.563 2434.5644 Z" fill="#00bd3a" stroke="none" />
    <path d="M 4855.528 2400.7854 L 4826.134 2400.7854 L 4826.134 2419.7494 L 4858.965 2419.7494 L 4858.965 2434.5644 L 4807.998 2434.5644 L 4807.998 2354.6804 L 4857.304 2354.6804 L 4857.304 2369.4954000000002 L 4826.134 2369.4954000000002 L 4826.134 2386.0864 L 4855.528 2386.0864 Z" fill="#00bd3a" stroke="none" />
    <path d="M 4934.108 2400.5495 L 4929.131 2383.5975000000003 C 4927.707 2378.8565000000003, 4926.287 2372.9315, 4925.103 2368.1905 L 4924.867 2368.1905 C 4923.678 2372.9315, 4922.494 2378.9765, 4921.19 2383.5975000000003 L 4916.448 2400.5495 Z M 4913.84 2414.0605 L 4908.15 2434.5645000000004 L 4889.427 2434.5645000000004 L 4913.84 2354.6795 L 4937.545 2354.6795 L 4962.318 2434.5645000000004 L 4942.878 2434.5645000000004 L 4936.717 2414.0605 Z" fill="#00bd3a" stroke="none" />
    <path d="M 4972.98 2434.5644 L 4972.98 2354.6804 L 4994.081 2354.6804 L 5010.672 2383.9534000000003 C 5015.413 2392.3714, 5020.154 2402.3254, 5023.711 2411.3354 L 5024.067 2411.3354 C 5022.878 2400.7854, 5022.526 2389.9994, 5022.526 2377.9084000000003 L 5022.526 2354.6804 L 5039.118 2354.6804 L 5039.118 2434.5644 L 5020.154 2434.5644 L 5003.086 2403.7504000000004 C 4998.346 2395.2124000000003, 4993.128 2384.9024, 4989.22 2375.5404000000003 L 4988.864 2375.6564000000003 C 4989.334 2386.2064, 4989.575 2397.4644000000003, 4989.575 2410.5034 L 4989.575 2434.5644 Z" fill="#00bd3a" stroke="none" />
    <path d="M 5072.896 2420.9335 C 5074.436 2421.2895000000003, 5076.926 2421.2895000000003, 5079.177 2421.2895000000003 C 5095.533 2421.4095, 5106.199 2412.3995, 5106.199 2393.3155 C 5106.319 2376.7245000000003, 5096.601 2367.9545000000003, 5081.074 2367.9545000000003 C 5077.046 2367.9545000000003, 5074.436 2368.3105, 5072.896 2368.6625000000004 Z M 5054.76 2355.7435 C 5061.398 2354.6795, 5070.051 2354.0875, 5079.177 2354.0875 C 5094.349 2354.0875, 5104.188 2356.8125, 5111.889 2362.6215 C 5120.186 2368.7825000000003, 5125.403 2378.6205, 5125.403 2392.7235 C 5125.403 2408.0145, 5119.831 2418.5655, 5112.128 2425.0825000000004 C 5103.711 2432.0755000000004, 5090.912 2435.3925000000004, 5075.265 2435.3925000000004 C 5065.903 2435.3925000000004, 5059.265 2434.8005000000003, 5054.76 2434.2085 Z" fill="#00bd3a" stroke="none" />
    <path d="M 5219.862 2432.3118000000004 C 5216.541 2433.9718000000003, 5209.076 2435.8688, 5199.354 2435.8688 C 5171.74 2435.8688, 5157.517 2418.5648, 5157.517 2395.8088000000002 C 5157.517 2368.5468, 5176.953 2353.3758000000003, 5201.134 2353.3758000000003 C 5210.496 2353.3758000000003, 5217.61 2355.2718000000004, 5220.81 2356.9328 L 5217.133 2371.2708000000002 C 5213.461 2369.7308000000003, 5208.363 2368.3108, 5201.962 2368.3108 C 5187.623 2368.3108, 5176.481 2376.9598, 5176.481 2394.7398000000003 C 5176.481 2410.7388, 5185.963 2420.8178000000003, 5202.082 2420.8178000000003 C 5207.535 2420.8178000000003, 5213.581 2419.6288000000004, 5217.133 2418.2088000000003 Z" fill="#00bd3a" stroke="none" />
    <path d="M 5243.559 2394.8603000000003 C 5243.559 2410.5033000000003, 5250.909 2421.5253000000002, 5262.999 2421.5253000000002 C 5275.205 2421.5253000000002, 5282.199 2409.9113, 5282.199 2394.3843 C 5282.199 2380.0413000000003, 5275.326 2367.7183, 5262.879 2367.7183 C 5250.673 2367.7183, 5243.559 2379.3333000000002, 5243.559 2394.8603000000003 M 5301.283 2393.7923 C 5301.283 2419.9853000000003, 5285.4 2435.8683, 5262.051 2435.8683 C 5238.346 2435.8683, 5224.479 2417.9683, 5224.479 2395.2123 C 5224.479 2371.2713000000003, 5239.766 2353.3753, 5263.355 2353.3753 C 5287.888 2353.3753, 5301.283 2371.7473, 5301.283 2393.7923" fill="#00bd3a" stroke="none" />
    <path d="M 5313.133 2434.5644 L 5313.133 2354.6804 L 5334.229 2354.6804 L 5350.825 2383.9534000000003 C 5355.566 2392.3714, 5360.307 2402.3254, 5363.864 2411.3354 L 5364.22 2411.3354 C 5363.031 2400.7854, 5362.675 2389.9994, 5362.675 2377.9084000000003 L 5362.675 2354.6804 L 5379.271 2354.6804 L 5379.271 2434.5644 L 5360.307 2434.5644 L 5343.239 2403.7504000000004 C 5338.498 2395.2124000000003, 5333.286 2384.9024, 5329.373 2375.5404000000003 L 5329.016 2375.6564000000003 C 5329.493 2386.2064, 5329.729 2397.4644000000003, 5329.729 2410.5034 L 5329.729 2434.5644 Z" fill="#00bd3a" stroke="none" />
    <path d="M 5395.502 2415.9565000000002 C 5400.363 2418.4445, 5407.829 2420.9335, 5415.534 2420.9335 C 5423.832 2420.9335, 5428.217 2417.4965, 5428.217 2412.2795 C 5428.217 2407.3025000000002, 5424.423 2404.4575000000004, 5414.822 2401.0215000000003 C 5401.547 2396.4005, 5392.898 2389.0505000000003, 5392.898 2377.4365000000003 C 5392.898 2363.8055000000004, 5404.276 2353.3755, 5423.12 2353.3755 C 5432.13 2353.3755, 5438.763 2355.2715000000003, 5443.508 2357.4045 L 5439.475 2371.9835000000003 C 5436.274 2370.4435000000003, 5430.584 2368.1905, 5422.764 2368.1905 C 5414.941 2368.1905, 5411.149 2371.7475000000004, 5411.149 2375.8965000000003 C 5411.149 2380.9935, 5415.654 2383.2415, 5425.964 2387.1545 C 5440.066 2392.3715, 5446.705 2399.7165, 5446.705 2410.9795000000004 C 5446.705 2424.3705, 5436.395 2435.8685, 5414.466 2435.8685 C 5405.34 2435.8685, 5396.334 2433.3805, 5391.829 2430.8915 Z" fill="#00bd3a" stroke="none" />
    <path d="M 5474.322 2369.851 L 5452.865 2369.851 L 5452.865 2354.6800000000003 L 5514.262 2354.6800000000003 L 5514.262 2369.851 L 5492.453 2369.851 L 5492.453 2434.5640000000003 L 5474.322 2434.5640000000003 Z" fill="#00bd3a" stroke="none" />
    <path d="M 5541.76 2390.1193000000003 L 5548.869 2390.1193000000003 C 5557.879 2390.1193000000003, 5563.212 2385.6143, 5563.212 2378.6203 C 5563.212 2371.2713000000003, 5558.235 2367.5983, 5549.937 2367.4783 C 5545.552 2367.4783, 5543.064 2367.8343000000004, 5541.76 2368.0703000000003 Z M 5523.86 2355.7443000000003 C 5529.669 2354.7953, 5538.319 2354.0883000000003, 5547.921 2354.0883000000003 C 5559.776 2354.0883000000003, 5568.069 2355.8643, 5573.758 2360.3693000000003 C 5578.499 2364.1623, 5581.108 2369.7313000000004, 5581.108 2377.0803 C 5581.108 2387.2743, 5573.878 2394.2683, 5567.005 2396.7563 L 5567.005 2397.1083000000003 C 5572.574 2399.3613, 5575.655 2404.6943, 5577.671 2412.0433000000003 C 5580.159 2421.0533, 5582.648 2431.4843, 5584.188 2434.5643 L 5565.7 2434.5643 C 5564.396 2432.1963, 5562.5 2425.7943, 5560.132 2415.9563000000003 C 5557.995 2405.9983, 5554.558 2403.2743, 5547.209 2403.1533 L 5541.76 2403.1533 L 5541.76 2434.5643 L 5523.86 2434.5643 Z" fill="#00bd3a" stroke="none" />
    <path d="M 5611.565 2354.6799 L 5611.565 2400.6649 C 5611.565 2414.4159, 5616.782 2421.4099, 5626.024 2421.4099 C 5635.506 2421.4099, 5640.723 2414.7719, 5640.723 2400.6649 L 5640.723 2354.6799 L 5658.739 2354.6799 L 5658.739 2399.4809 C 5658.739 2424.1339000000003, 5646.292 2435.8689000000004, 5625.432 2435.8689000000004 C 5605.284 2435.8689000000004, 5593.434 2424.7259000000004, 5593.434 2399.2449 L 5593.434 2354.6799 Z" fill="#00bd3a" stroke="none" />
    <path d="M 5733.055 2432.3118000000004 C 5729.734 2433.9718000000003, 5722.269 2435.8688, 5712.547 2435.8688 C 5684.933 2435.8688, 5670.71 2418.5648, 5670.71 2395.8088000000002 C 5670.71 2368.5468, 5690.146 2353.3758000000003, 5714.327 2353.3758000000003 C 5723.689 2353.3758000000003, 5730.803 2355.2718000000004, 5734.003 2356.9328 L 5730.326 2371.2708000000002 C 5726.654 2369.7308000000003, 5721.556 2368.3108, 5715.155 2368.3108 C 5700.817 2368.3108, 5689.674 2376.9598, 5689.674 2394.7398000000003 C 5689.674 2410.7388, 5699.156 2420.8178000000003, 5715.275 2420.8178000000003 C 5720.729 2420.8178000000003, 5726.774 2419.6288000000004, 5730.326 2418.2088000000003 Z" fill="#00bd3a" stroke="none" />
    <path d="M 5761.968 2369.851 L 5740.515 2369.851 L 5740.515 2354.6800000000003 L 5801.912 2354.6800000000003 L 5801.912 2369.851 L 5780.104 2369.851 L 5780.104 2434.5640000000003 L 5761.968 2434.5640000000003 Z" fill="#00bd3a" stroke="none" />
    <path d="M 5811.51 2434.5640000000003 h 18.136 v -79.884 h -18.136 Z" fill="#00bd3a" stroke="none" />
    <path d="M 5860.696 2394.8603000000003 C 5860.696 2410.5033000000003, 5868.046 2421.5253000000002, 5880.136 2421.5253000000002 C 5892.342 2421.5253000000002, 5899.336 2409.9113, 5899.336 2394.3843 C 5899.336 2380.0413000000003, 5892.463 2367.7183, 5880.016 2367.7183 C 5867.81 2367.7183, 5860.696 2379.3333000000002, 5860.696 2394.8603000000003 M 5918.42 2393.7923 C 5918.42 2419.9853000000003, 5902.537 2435.8683, 5879.188 2435.8683 C 5855.483 2435.8683, 5841.616 2417.9683, 5841.616 2395.2123 C 5841.616 2371.2713000000003, 5856.904 2353.3753, 5880.492 2353.3753 C 5905.026 2353.3753, 5918.42 2371.7473, 5918.42 2393.7923" fill="#00bd3a" stroke="none" />
    <path d="M 5930.267 2434.5644 L 5930.267 2354.6804 L 5951.368 2354.6804 L 5967.959 2383.9534000000003 C 5972.7 2392.3714, 5977.441 2402.3254, 5980.997 2411.3354 L 5981.354 2411.3354 C 5980.165 2400.7854, 5979.813 2389.9994, 5979.813 2377.9084000000003 L 5979.813 2354.6804 L 5996.405 2354.6804 L 5996.405 2434.5644 L 5977.441 2434.5644 L 5960.373 2403.7504000000004 C 5955.632 2395.2124000000003, 5950.415 2384.9024, 5946.506 2375.5404000000003 L 5946.15 2375.6564000000003 C 5946.622 2386.2064, 5946.863 2397.4644000000003, 5946.863 2410.5034 L 5946.863 2434.5644 Z" fill="#00bd3a" stroke="none" />
    <path d="M 6094.661 2432.3118000000004 C 6091.34 2433.9718000000003, 6083.874 2435.8688, 6074.152 2435.8688 C 6046.539 2435.8688, 6032.316 2418.5648, 6032.316 2395.8088000000002 C 6032.316 2368.5468, 6051.752 2353.3758000000003, 6075.933 2353.3758000000003 C 6085.295 2353.3758000000003, 6092.409 2355.2718000000004, 6095.609 2356.9328 L 6091.932 2371.2708000000002 C 6088.26 2369.7308000000003, 6083.162 2368.3108, 6076.761 2368.3108 C 6062.422 2368.3108, 6051.28 2376.9598, 6051.28 2394.7398000000003 C 6051.28 2410.7388, 6060.762 2420.8178000000003, 6076.881 2420.8178000000003 C 6082.334 2420.8178000000003, 6088.38 2419.6288000000004, 6091.932 2418.2088000000003 Z" fill="#00bd3a" stroke="none" />
    <path d="M 6124.642 2354.6799 L 6124.642 2385.3779000000004 L 6154.392 2385.3779000000004 L 6154.392 2354.6799 L 6172.408 2354.6799 L 6172.408 2434.5639 L 6154.392 2434.5639 L 6154.392 2401.1419 L 6124.642 2401.1419 L 6124.642 2434.5639 L 6106.506 2434.5639 L 6106.506 2354.6799 Z" fill="#00bd3a" stroke="none" />
    <path d="M 6235.697 2400.7854 L 6206.299 2400.7854 L 6206.299 2419.7494 L 6239.134 2419.7494 L 6239.134 2434.5644 L 6188.167 2434.5644 L 6188.167 2354.6804 L 6237.469 2354.6804 L 6237.469 2369.4954000000002 L 6206.299 2369.4954000000002 L 6206.299 2386.0864 L 6235.697 2386.0864 Z" fill="#00bd3a" stroke="none" />
    <path d="M 6319.014 2403.9861 C 6318.658 2394.3841, 6318.302 2382.7701, 6318.302 2371.1551 L 6317.946 2371.1551 C 6315.462 2381.3451, 6312.14 2392.7231, 6309.06 2402.0901000000003 L 6299.338 2433.2601000000004 L 6285.235 2433.2601000000004 L 6276.697 2402.4461 C 6274.097 2392.9641, 6271.364 2381.5851000000002, 6269.467 2371.1551 L 6269.236 2371.1551 C 6268.755 2381.9371, 6268.408 2394.2681000000002, 6267.811 2404.2221 L 6266.387 2434.5641 L 6249.676 2434.5641 L 6254.777 2354.6801 L 6278.833 2354.6801 L 6286.66 2381.3451 C 6289.143 2390.4751, 6291.637 2400.5491, 6293.408 2409.9111000000003 L 6293.764 2409.9111000000003 C 6296.017 2400.6651, 6298.75 2390.1191000000003, 6301.35 2381.2291 L 6309.888 2354.6801 L 6333.473 2354.6801 L 6337.862 2434.5641 L 6320.198 2434.5641 Z" fill="#00bd3a" stroke="none" />
    <path d="M 6351.724 2434.5640000000003 h 18.136 v -79.884 h -18.136 Z" fill="#00bd3a" stroke="none" />
    <path d="M 6444.176 2432.3118000000004 C 6440.855 2433.9718000000003, 6433.385 2435.8688, 6423.663 2435.8688 C 6396.054 2435.8688, 6381.826 2418.5648, 6381.826 2395.8088000000002 C 6381.826 2368.5468, 6401.262 2353.3758000000003, 6425.444 2353.3758000000003 C 6434.81 2353.3758000000003, 6441.923 2355.2718000000004, 6445.119 2356.9328 L 6441.443 2371.2708000000002 C 6437.774 2369.7308000000003, 6432.673 2368.3108, 6426.271 2368.3108 C 6411.937 2368.3108, 6400.79 2376.9598, 6400.79 2394.7398000000003 C 6400.79 2410.7388, 6410.272 2420.8178000000003, 6426.396 2420.8178000000003 C 6431.845 2420.8178000000003, 6437.89 2419.6288000000004, 6441.443 2418.2088000000003 Z" fill="#00bd3a" stroke="none" />
    <path d="M 6496.082 2400.5495 L 6491.105 2383.5975000000003 C 6489.681 2378.8565000000003, 6488.256 2372.9315, 6487.072 2368.1905 L 6486.832 2368.1905 C 6485.646 2372.9315, 6484.463 2378.9765, 6483.164 2383.5975000000003 L 6478.418 2400.5495 Z M 6475.809 2414.0605 L 6470.119 2434.5645000000004 L 6451.396 2434.5645000000004 L 6475.809 2354.6795 L 6499.519 2354.6795 L 6524.288 2434.5645000000004 L 6504.852 2434.5645000000004 L 6498.691 2414.0605 Z" fill="#00bd3a" stroke="none" />
    <path d="M 6534.953 2354.6799 L 6553.089 2354.6799 L 6553.089 2419.3929000000003 L 6584.856 2419.3929000000003 L 6584.856 2434.5639 L 6534.953 2434.5639 Z" fill="#00bd3a" stroke="none" />
    <path d="M 6596.109 2415.9565000000002 C 6600.97 2418.4445, 6608.44 2420.9335, 6616.142 2420.9335 C 6624.44 2420.9335, 6628.829 2417.4965, 6628.829 2412.2795 C 6628.829 2407.3025000000002, 6625.036 2404.4575000000004, 6615.429 2401.0215000000003 C 6602.154 2396.4005, 6593.509 2389.0505000000003, 6593.509 2377.4365000000003 C 6593.509 2363.8055000000004, 6604.888 2353.3755, 6623.727 2353.3755 C 6632.737 2353.3755, 6639.37 2355.2715000000003, 6644.115 2357.4045 L 6640.083 2371.9835000000003 C 6636.886 2370.4435000000003, 6631.197 2368.1905, 6623.371 2368.1905 C 6615.554 2368.1905, 6611.761 2371.7475000000004, 6611.761 2375.8965000000003 C 6611.761 2380.9935, 6616.266 2383.2415, 6626.576 2387.1545 C 6640.679 2392.3715, 6647.312 2399.7165, 6647.312 2410.9795000000004 C 6647.312 2424.3705, 6637.002 2435.8685, 6615.073 2435.8685 C 6605.947 2435.8685, 6596.946 2433.3805, 6592.441 2430.8915 Z" fill="#00bd3a" stroke="none" />
  </g>
</svg>